<?xml version="1.0" encoding="utf-8"?>
<!-- Generator: Adobe Illustrator 18.1.0, SVG Export Plug-In . SVG Version: 6.00 Build 0)  -->
<svg version="1.0" id="Layer_1" xmlns="http://www.w3.org/2000/svg" xmlns:xlink="http://www.w3.org/1999/xlink" x="0px" y="0px"
	 viewBox="0 0 500 500" enable-background="new 0 0 500 500" xml:space="preserve">
<g>
	<path fill="#30353A" d="M382.4,288.2h-0.6C382.4,288.2,382.4,288.2,382.4,288.2z"/>
	<path fill="#30353A" d="M378.7,353l-0.6-0.6C378.7,352.3,378.7,352.3,378.7,353z"/>
	<path fill="#30353A" d="M383,250.2L383,250.2c0-0.6,0-1.2,0-2.5V250.2z"/>
	<path fill="#30353A" d="M328,425.2h0.6C328,425.2,328,425.2,328,425.2z"/>
	<path fill="#30353A" d="M376.3,404.7l0.6,0.6C376.9,405.3,376.9,404.7,376.3,404.7z"/>
	<path fill="#30353A" d="M398.3,228.4l-1.2,1.2C397.7,229,398.3,229,398.3,228.4z"/>
	<path fill="#30353A" d="M387.3,189.2L387.3,189.2L387.3,189.2z"/>
	<path fill="#30353A" d="M386,205.4c0,0,0.6,0.6,0.6,1.2C386.7,206,386,205.4,386,205.4z"/>
	<path fill="#30353A" d="M386.7,206.6L386.7,206.6C386.7,206.6,386.7,207.2,386.7,206.6z"/>
	<path fill="#30353A" d="M403.2,249c1.2,1.2,0,3.7,1.2,3.1C403.8,250.8,405,249.6,403.2,249z"/>
	<path fill="#30353A" d="M377.5,400.9L377.5,400.9L377.5,400.9z"/>
	<path fill="#30353A" d="M370.1,451.4c-1.2,0-1.8,1.2-2.4,2.5C368.3,453.9,369.5,453.2,370.1,451.4z"/>
	<path fill="#30353A" d="M408.7,408.4C408.7,407.8,408.7,407.8,408.7,408.4L408.7,408.4L408.7,408.4z"/>
	<path fill="#30353A" d="M405,422.1c-0.6,0-0.6,0.6-0.6,0.6S405,422.7,405,422.1z"/>
	<path fill="#30353A" d="M9.4,453.9c2.9-10,23.7,5.9,24.7,4.6c-0.2,0.3,2-0.8,2.5-1.4c0.6-1.2,1.8-1.9,3.1,0
		c1.2-0.6,2.4-0.6,3.1-0.6c1.2,0,2.4,0.6,3.7,0.6c1.2,0.6,3.1,0.6,4.3,0.6c0.6,0,0.6,0,1.2,0h1.8c1.2,0,2.4,0,3.7-0.6v1.9
		c1.2,1.2,1.8,0,3.1,0v0.6c3.1,1.2,7.3,0.6,9.2,1.9l0.6-1.9c1.8,0.6,0.6,1.9,3.1,1.2v0.6l2.4-1.2c-1.2,3.1,5.5,1.9,6.7,3.1
		c2.4,0,7.9,0,11.6,1.9c0.6,1.9,4.9-8.8,7.9-7.6c6.1,1.2,14.7-5.2,22-2.7l0.6-1.9l1.8,0.6c0,0.6,0,0.6,0,0.6
		c1.2,2.5,4.9,0.6,6.1,2.5c-0.6-1.9-1.2-0.6-2.4-1.2c-1.2-1.2,0.6-3.1,2.4-1.2v0.6l1.8-0.6c0,1.9,1.2,2.5,0.6,4.4
		c6.7,1.2,11.6,0,18.3,2.5c-1.2,1.2,4.9,0.6,3.1,3.7c3.3,0,1.5-1.5,1.6-3l2,0.5l-0.6,0.6c6.1-0.6,9.2,4.4,14.7,3.7
		c0.6-1.2-1.8-0.6-1.2-1.9c5.5-1.2,3.7,3.1,9.2,2.5l-1.2,1.2c1.8-0.6,2.4-1.9,4.9,0c0,1.9-2.4,1.2-3.7,1.2c1.8,0.6,6.1,1.2,4.9-0.6
		c2.4,0,2.4,1.9,3.7,2.5c0-0.6-1.8-1.9,0-1.9c2.4,1.9,6.7,1.3,10.4,2.5c0,0.3,5-7.9,4.9-7.6c1.8-1-4,0,0,0
		c10.4,1.9,23.8,1.9,34.2,4.4c2.4-1.9,6.1-1.2,9.2-1.2v3.1l3.1-0.6c1.2,1.2-2.4,0-0.6,1.9l1.2-1.9c0,1.2,6.7,1.9,1.8,3.1l30.9-4.7
		c2.4,0.6,1.8-2.5,4.3-1.2c0.6,1.2-1.2,0.6-1.2,1.9c7.9,3.1,9.8-5,17.1-3.1l-0.6,0.6c1.2-0.6,3.7-0.6,3.7-1.2
		c-0.6-3.1-1.2,1.9-3.7-0.6c0.6-2.5,3.1-1.2,3.1-3.1c1.8,1.2,3.1-0.6,4.3-0.6c2.4,1.9,6.1,0.6,8.6,2.5c1.2-0.6,3.1-3.7,5.5-3.7
		c1.8,1.9-0.6,1.9,2.4,2.5l0.6-1.9c2.4,0,1.8,0.6,1.8,1.2c2.4,0,1.8-1.9,4.9-1.2l-1.8,1.9c2.4-0.6,3.1-0.6,6.7-0.6
		c0,0.6-1.2,1.2-2.4,0.6c1.8,1.9,3.1-1.2,3.7-1.2c-0.6-0.6-2.4-0.6-1.8-2.5c1.8,0,3.1-2.5,4.3-0.6l-1.8,1.9c3.1-1.9,1.2-2.5,5.5-2.5
		v0.6c1.8-2.5,5.5-1.2,9.2-1.9l-0.6,0.6c1.2-0.6,1.8-2.5,2.4-2.5c-2.4-0.6-1.8-0.6-2.4-2.5c3.1,1.9,3.1-3.7,7.9-3.7
		c0,0.6-0.6,2.5-1.8,1.9c-0.6,3.1,0,5-2.4,6.9c1.3-0.9,2.7-1.5,3.1-1.2v-1.9c1.2-0.6,1.8-0.6,2.4-0.6c0-1.9-3.1-1.9-0.6-3.7
		c2.4-1.9,2.4,1.9,2.4,0.6c3.1-2.5,0.6-3.1,4.3-3.7c0,0.5-0.3,0.9-0.8,1.1c2.8-0.8,5.2-3.5,7.5-1.1c0,0.6,0.6,1.9-0.6,1.9v-0.6
		c-1.7,2.9,1.3-1.1,2.2,0.6c0.1-0.4,0.6-0.8,1.4-1.3c1.2-0.6,2.4-1.9,3.1-1.9l-1.2-1.2c1.8-8.1,1.8,3.1,6.7-1.2
		c2.4-3.7-1.2,0.6-0.6-1.9c1.8-1.9,4.3-1.2,6.1-5c1.2-0.6,3.7-1.9,4.9-0.6c0.6-2.5,5.5-6.2,4.3-8.7c-3.7,3.1-0.6,5-5.5,8.1l-0.6-2.5
		c1.8-3.1,3.7-7.5,4.9-9.3c-0.6,0-1.2,0-1.2,0c1.2-5,0-6.9,1.2-10.6c1.8,0,1.2,2.5,0.6,4.4c1.8-2.5,0.6-3.1,2.4-6.9
		c1.8,0-0.6,3.1,0.6,3.7l0.6-5c0,0,0,0,0.6,0c-2.4-1.2,0.6-3.7,0-6.9c0-3.1-0.6-5.6-1.8-6.9c-1.2-1.2-2.4-2.5-3.7-3.7
		c0.6-0.6,1.2-1.2,1.8-0.6c-1.2,1.2,0,1.2,0.6,1.9c0-1.9,2.4-4.4,3.7-3.1c-0.6-3.1-1.2,1.2-2.4-0.6v-4.4c-1.2,0.6-1.8,1.9-2.4,0
		c-0.6-1.9,0-2.5,0-5c0.6,0.6,1.8-0.6,1.8,1.2c0.6-1.2,0.6-3.1-0.6-3.7c-1.2,2.5-1.2-4.4-3.1-2.5l1.2-2.5c0,0.6,0.6,0.6,0.6,1.2
		c1.8-0.6-0.6-1.9-0.6-3.1c0.6-0.6,0.6-3.1,1.2-3.7c-0.6-0.6,0-2.5,0.6-3.1c-0.6-1.2-1.2,0-1.8-0.6V358c1.2,0,4.3-0.6,4.9,0
		c-1.2-1.2-3.1-0.6-3.1-3.1c2.4,1.2,1.8-3.1,4.3-1.2c1.8-1.2,1.2-5,0.6-7.5c-1.8-1.2-1.2,2.5-2.4,2.5c-0.6-6.2-5.5-6.2-4.9-10.6
		l-0.6,1.2c-1.2-2.5-0.6-2.5-2.4-3.7c2.4,0.6,6.1-3.1,5.5-7.5c-1.2-0.6-1.8,2.5-3.7,1.9l-0.6-3.1c0,0,0.6,0,0.6,0.6
		c-0.6-2.5,3.1-5,0-5.6l1.7-1.4c-1.1-0.8-1.1-3-1.7-3.6c-1.1-2.8-0.7-4.1,0.7-5.2c-0.9,0.6-2.5,1-2.5-1c3.7,0,1.2-5,3.1-5
		c0-1.2,1.2-2.5-0.6-2.5h2.4c-3.1,0-3.1-3.7-3.7-6.2c4.3,0.6-0.6-3.1,3.1-4.4c-3.1-0.6-1.2-5-3.7-5c0-1.9,2.4-1.9,3.1-2.5l-1.2-0.6
		c1.2-1.2,1.2-5,1.8-7.5l-2.4-1.9l1.2-0.6c-0.6-0.6-1.2-1.9-1.8-0.6v-1.2c-2.4,0-0.6-1.9-2.4-3.7c0.6-0.6,1.2-0.6,1.2,0
		c0-1.2,1.2-0.6,2.4-1.2c-0.6,0.6-4.9-3.7-6.1-0.6c-1.2,0-1.8-1.2-1.8-2.5l2.4-0.6l-2.4-1.2c-0.6-1.9,1.2-2.5,1.2-4.4
		c0,1.2,4.9,3.1,4.9-0.6c0.6,1.9,1.8,3.1,2.4,3.7c0-0.6,0-1.2,1.2,0c-1.2-3.1-1.8-0.6-1.8-3.7c2.4,0,3.1-0.6,3.7-3.7l-1.2,1.9
		c0,0-0.6,0-0.6-0.6c0,0.6-0.6,1.2-1.2,1.2c0-0.6-2.6-2.8-2-3.6c-2.9,2.6-2.9-5.1-4.7-3.3c-0.6,0-1.2-2.5,0-2.5
		c1.8,2.5,2.4-1.9,3.7-1.9c-0.6-0.6-1.2,1.9-2.4,0.6c0-1.2,1.2-2.5,1.8-3.7l0.6,0.6l0.6-2.5c-1.2,0-1.8,2.5-2.4,0.6
		c0.6-0.6-0.6-2.5,0.6-2.5c1.8,0.6,3.7,0,4.3,1.9c0-1.2-1.2-6.2-3.1-4.4V234c-0.6,1.2-2.4,4.4-3.1,1.2h0.6l-1.8-2.5l1.2-1.2
		c-0.6,0-1.2,0-1.2-1.2c0.6,0,0.6-1.2,1.8-1.2c-0.6-2.5-1.2-2.5-2.4-2.5c-0.6-1.2,0-1.9,1.2-1.2c0-1.9-0.6-5.6,0.6-7.5
		c-1.2-2.5-0.6,0.6-1.8-0.6c3.7-3.1,0-9.3-1.2-13.7c-2.9,1.8-0.8-1-3.4-1.2c1-0.3,1.7-4.7,3.4-1.3l-0.6-2.5c1.2-1.9,2.4,3.7,4.3,0.6
		c-0.6-3.1-4.9-3.7-4.3-7.5c2.4,0.6-1.2-2.5,1.2-2.5c1.2,0.6,1.2,1.2,1.2,2.5l0.6-0.6c-1.2-6.9-3.1-1.2-5.5-3.7
		c-1.2-3.7,0.6-3.7,1.8-4.4c0.4-0.4-0.2-1.5-0.8-2.5c0.7,1.7-0.8,3.6-2.2,3.1c1.8-2.5-2.4-6.2-3.7-6.9c0,3.7,0.6,4.4,0.6,5.6
		c0.6,0.6,0.6,1.9,0,5c1.2,0.6,3.1-0.6,3.1,3.1c-1.8-1.2-1.2,0.6-1.2,1.2c1.2-1.2,1.2,1.9,1.8,2.5c-1.2,1.2-3.7-0.6-3.7,1.9h3.1
		c0,1.2-2.4,0-1.2,2.5c-1.8-0.6-2.4,1.2-3.7-1.9c-1.8,4.4,3.1,5.6,4.3,8.1c0,0-0.3,0-0.7-0.2c0.7,0.7,0.7,1.6,0.7,2.1
		c-0.6,1.9-1.8-1.2-2.4-0.6l0.6,3.1c0.6,0.6,1.2,1.2,0,1.9c-1.2-0.6-2.4-1.2-3.1-1.2l3.1,3.1c-1.2,0-1.2,3.1-2.4,0.6l1.2,5l-1.2,0.3
		c0.4,2,4.6,6.5,0.6,6.5c2.4,3.7,1.8,5,3.1,10c-2.4-3.7-2.4,4.4-3.7,0.6c-0.6,2.5,1.8,2.5,2.4,4.4c-0.6,1.9-3.1,1.2-4.3-0.6l1.2,1.9
		h-0.6l1.2,1.9c-1.2,1.9-2.4,0.6-2.4,2.5h1.8l-1.2,1.2c0.6-0.6,1.2,0.6,1.8,1.9h-0.6l0.6,1.9c-1.2-1.9-0.6,1.9-1.8,1.2
		c0,1.2,0,1.2,0.6,4.4l1.2-0.6c1.2,3.7-1.8,0-1.8,3.1h1.8c-2.4,4.4,1.8,6.9,0.6,10c-0.6-1.9-2.4-1.2-1.8-1.2
		c0.6,2.5,0.6,6.9,2.4,9.3c-2.4,1.2-3.1,1.2-3.7,4.4c0,1.9,0.6,2.5,1.8,3.1c-0.6,1.9,0.6,5.6-1.2,5.6c1.2,0.6,0,1.9,1.2,3.1h1.2
		c-3.1,3.7,2.4,5.6-0.6,9.3l-0.6-0.6l0.6,1.2c-0.6,0-1.2-0.6-1.8-0.6v6.9l1.2-1.2c0,1.2,1.8,2.5,0.6,4.4c-2.4-2.5,0,2.5-1.8,3.1
		l-0.6-1.2c0,1.9,0,1.9,1.8,1.9c0.6,2.5-3.1,1.9-1.2,4.4v-1.9c0.6-0.6,2.4,0.6,2.4,1.9c0,0-0.6,1.2-1.2,0c0.6,1.9,0,5,0.6,6.2
		c-0.5,1.1-1.5,0.8-1.8,0.3c1.1,4,0,1.7,1.2,6h-0.6l1.2,1.2l-1.8,2.5l1.2-0.6c0,1.2,0.6,2.5,0.6,4.4l-4.3-2.5c0.6,4.4-1.8,5,0,8.7
		l-0.6-0.6c1.8,3.7-2.4,2.5,0,6.2c-0.6,0-1.2,0-1.2,0l0.6,1.9h-1.8l2.4,1.2l-1.8,1.2l0.6,0.6c-3.7,1.9-0.6,4.4-3.1,6.9l2.4-0.6
		c4.9,6.2-2.4,14.3-0.6,21.8h-1.8l1.8,3.1c-1.2,1.9-1.2-1.2-2.4-0.6c1.2,3.1,2.4,1.2,3.1,5c-1.2,1.9-1.2-0.6-1.8-1.9
		c1.2,4.4,1.2,7.5,0.6,9.3h0.6c0.6,1.9-0.6,3.7-1.2,5.6c-0.6,0-0.6-0.6-0.6-1.2c0,0.6-0.6,1.2-0.6,1.9H375c-0.5,1.1-0.6,3.1-1.4,3.2
		c0.6,0.2,1.3,0.8,0.8,1.8c-2.4-1.2-0.6,3.1-2.4,3.7V414c-0.6,0-0.6,1.2-0.6,2.5l-0.6-0.6c0,0-1.2,3.7-1.8,3.7
		c-2.4-1.9-3.1,2.5-3.7,0.6c-1.2,0.6,1.8,0.6,0,1.9c-1.2-0.6-1.2,1.2-2.4,0l-1.2,0.6v-1.9c-0.6,0.6-0.6,3.1-0.6,4.4
		c-1.2-0.6-3.1,1.2-4.3-0.6V424c-3.1,1.9-6.7-3.1-8.6,0.6c0,0-0.4-0.4-0.2-0.6l-2.2,0.6v-1.2l-3.7,2.5v-0.6c-2.4,0-6.7,1.2-10.4,1.2
		l0.6-0.6c-1.8,0.6-1.8-1.2-4.9-0.6v-0.6l-2.4,11.9l0.6-0.6c-1.8,1.9-5.5-2.5-4.3-0.6c-0.6,0.6-3.1,1.9-3.1,3.1
		c-3.1,0-0.6-1.2-2.4-1.9c-1.8,0-2.4,1.2-5.5,0.6v-0.6c-1.2,0-2.4,0.6-4.3,0.6l0.6-0.6c-3.1,1.9-3.7-3.1-6.1,0.6
		c-1.2-0.6-3.7-0.6-3.7-2.5c-3.7,0.6-7.3,1.2-11,1.2c0-3.1-0.6,0-3.1-1.9v1.9c-5.5-0.6-30.9,0.4-37,0.4v-1.9l-1.2,1.2
		c-6.1-1.9-14.7-4.4-20.2-5c-1.8,0.6-4.9,1.9-7.3,0.6h0.6c-4.9,0-10.4-0.6-15.3-2.5c0.4-0.4,0.3-0.9,0.3-1.1c-1.7,0.9-2.8,1.6-4,1.6
		l1.2,1.2c-1.8,1.2-3.7,1.8-4.3,0.5l-2.4,1.2v-0.6l-0.6,0.6l-0.6-2.5c-0.6,0-3.7,2.4-5.5,4.3c0-0.6-1.8,5.3-0.6,5.3l-8.6-4.9
		l1.2,1.2c0,1.9-3.1,1.9-4.3,0.6c1.8-0.6,0.6-1.9,0-3.7c-1.2,0.6,0.6,1.9,0,2.5c-1.8,0.6-4.9,0.6-5.5-0.6l1.2-0.6
		c-1.8,0-2.4-3.1-4.3-3.1c-1.8,0.6-3.1-0.6-3.1,1.9c-2.4,0-0.6-1.9-1.2-2.5c-1.2,1.2-4.9-0.6-4.9-2.5c-2.4,3.7-6.7-3.1-7.9,0
		l-1.8,9.4c0,0.6-1.2-9.4-3.1-9.4c-1.2-1.2-0.6-2.5-0.6-3.7l-1.8,3.1c-8.6-5.6-20.8,1.5-30.6-4.1c-4.9-0.6-11,11.3-15.9,9.4h0.6
		l-4.9-2.5l3.7,2.5c-1.2,0-2.4,0.6-3.7,0c-5.5-3.1-12.8-6.2-20.8-6.2c-5.5,2.5-2.4,2.2-7.3,3.5c0.6,0,0.6-0.6,1.2-1.2h-7.3
		c-2.4,0-4.9-5.3-8.6-4.1c1.2-3.7-4.3,6-3.7,4.1l-0.6,1.2c-1.2-1.2-4.9-1.2-4.9-2.5l-3.1,2.5l-0.6-1.2c-1.8,0-6.7-4.7-9.7-4.1
		c-3.1,0.6-6.1,13.5-7.9,12.9 M158.4,461c0.1-0.1,0.2-0.3,0.4-0.4c1.2,0.6,2.4,0,2.4,1.2C159.7,461.1,158.9,460.9,158.4,461z"/>
	<path fill="#30353A" d="M409.3,406.5l-0.6,1.9c0.6,0,0.6,0,1.2,1.2L409.3,406.5z"/>
	<path fill="#30353A" d="M405.6,366l0.6,0.6C406.2,366,405.6,366,405.6,366z"/>
	<path fill="#30353A" d="M403.8,260.8L403.8,260.8L403.8,260.8z"/>
	<path fill="#30353A" d="M401.3,266.4c0,0,0,0.6,0.6,1.2C401.9,267,401.3,267,401.3,266.4z"/>
	<path fill="#30353A" d="M406.2,391.6c0,0.6,0,0.6,0.6,1.2C406.8,392.2,406.2,391.6,406.2,391.6z"/>
	<path fill="#30353A" d="M401.9,268.9v1.2c0,0,0,0,0.6,0L401.9,268.9z"/>
	<path fill="#30353A" d="M403.8,258.9c0,0.6,0,1.2,0,1.9C404.4,259.6,404.4,259.6,403.8,258.9z"/>
	<path fill="#30353A" d="M402.5,327.4L402.5,327.4C403.8,328.7,403.2,328.1,402.5,327.4z"/>
	<polygon fill="#30353A" points="405.6,275.1 405.6,275.7 406.2,275.7 	"/>
	<path fill="#30353A" d="M404.4,252.1c0,0,0,0.6,0.6,0.6C404.4,252.7,405,252.7,404.4,252.1L404.4,252.1z"/>
	<path fill="#30353A" d="M405,305.6c-0.6-0.6-1.2-0.6-1.2-0.6S403.8,305.6,405,305.6z"/>
	<g>
		<path fill="#30353A" d="M468.6,150.6c0,0,0.6,0,0.6-0.6C468.6,149.9,468.6,149.9,468.6,150.6z"/>
		<path fill="#30353A" d="M450.2,120.7L450.2,120.7C450.8,120.7,450.8,120.7,450.2,120.7z"/>
		<path fill="#30353A" d="M479,168L479,168c0,0.6,0,0.6,0.6,1.2L479,168z"/>
		<path fill="#30353A" d="M404.4,63.4L404.4,63.4L404.4,63.4z"/>
		<path fill="#30353A" d="M431.9,97c-0.6,0-0.6,0-0.6,0C431.3,97.6,431.9,97.6,431.9,97z"/>
		<path fill="#30353A" d="M471.6,186.7l0.6-1.2C471.6,186.1,471.6,186.7,471.6,186.7z"/>
		<path fill="#30353A" d="M486.3,200.4L486.3,200.4L486.3,200.4z"/>
		<path fill="#30353A" d="M486.3,191.7h-0.6C485.7,191.7,485.7,191.7,486.3,191.7z"/>
		<path fill="#30353A" d="M485.1,191L485.1,191L485.1,191z"/>
		<path fill="#30353A" d="M281.5,249c0,0.6,0.6,1.2,1.2,1.9L281.5,249z"/>
		<path fill="#30353A" d="M328.6,41.6L328.6,41.6C328,41.6,328.6,41.6,328.6,41.6z"/>
		<path fill="#30353A" d="M290.7,252.1L290.7,252.1L290.7,252.1z"/>
		<path fill="#30353A" d="M463.1,180.5c-1.2,0-0.6-1.2-1.8-0.6C461.9,179.8,461.2,181.1,463.1,180.5z"/>
		<path fill="#30353A" d="M359.7,87L359.7,87L359.7,87z"/>
		<path fill="#30353A" d="M290.7,252.1L290.7,252.1C291.3,251.5,290.7,251.5,290.7,252.1L290.7,252.1z"/>
		<path fill="#30353A" d="M305.9,121.9L305.9,121.9L305.9,121.9L305.9,121.9z"/>
		<path fill="#30353A" d="M303.5,125v-0.6C302.9,124.4,302.9,124.4,303.5,125z"/>
		<path fill="#30353A" d="M282.7,250.8l0.6,1.2C282.7,251.5,282.7,251.5,282.7,250.8z"/>
		<path fill="#30353A" d="M295.6,163L295.6,163L295.6,163z"/>
		<path fill="#30353A" d="M433.7,99.5C433.7,100.1,433.7,100.1,433.7,99.5C433.7,100.1,433.7,100.1,433.7,99.5z"/>
		<path fill="#30353A" d="M393.4,102L393.4,102L393.4,102z"/>
		<path fill="#30353A" d="M395.2,102c0-0.6-1.2-0.6-1.8,0C393.4,102,394,102.6,395.2,102z"/>
		<path fill="#30353A" d="M391.5,99.5L391.5,99.5L391.5,99.5z"/>
		<path fill="#30353A" d="M409.3,121.3L409.3,121.3L409.3,121.3z"/>
		<path fill="#30353A" d="M405.6,117.6v-0.6C405.6,116.9,405.6,116.9,405.6,117.6z"/>
		<path fill="#30353A" d="M379.9,92L379.9,92L379.9,92z"/>
		<path fill="#30353A" d="M362.8,88.3c-0.6-1.2-0.6-4.4,0-3.1c0-3.1,0.6-2.5,0.6-3.1l-0.6,3.7l0.6-1.2c0,1.2,0,0.6-0.6,1.9l0.6-1.9
			C363.4,85.8,364,85.8,362.8,88.3L362.8,88.3c0,0,1.2-2.5,1.2-1.9C363.4,87,364,87,362.8,88.3c-0.6,0.6,0.6-0.6,1.2-1.9
			c0.6-0.6,1.8-0.6,2.4-0.6c0.6,0,1.2,0,1.8,1.2h-0.6c1.2,0,1.8,0.6,1.8,0c1.8-2.5-1.8,0.6-1.2-1.2c1.8-1.9,1.8,0,3.1-1.9
			c0,1.2,1.2,0.6,1.8,0.6c0,1.9,1.8,2.5,1.2,4.4c1.2,0,3.1-1.9,4.3-0.6c-0.6,2.5-1.2,1.2-1.2,2.5l1.2-1.2c0.6,0.6,0,1.2-0.6,1.9
			c0.6,0.6,1.8-0.6,2.4,0.6l-1.8,0.6c1.2,0,1.2,0.6,2.4,1.9c-0.6,0.6-1.2,0-1.2-0.6c-1.2,2.5,1.8,0,1.8,0.6c0.6-0.6,0-1.2,1.2-2.5
			c0.6,0.6,2.4-0.6,1.8,1.2l0,1.9c1.8,0,1.8-0.6,2.4,0.6l-0.6,0.6c2.4-0.6,1.8,1.9,3.1,3.1h-0.6c0.6,0,1.8-0.6,2.4,0
			c0-1.2,0.6-1.2,1.2-2.5c-0.6,2.5,3.7-0.6,3.7,1.9c-0.6,0.6-1.8,1.2-1.2,0c-1.8,1.2-3.7,2.5-5.5,2.5c1.2,0,1.8,0.6,1.2,1.2l1.8-1.9
			c0.6,0,0.6,0.6,0.6,0.6c1.2-1.2,1.2-2.5,2.4-2.5c1.2,0-1.2,2.5-0.6,1.9c2.4,0.6,2.4-1.2,3.1,0.6h-0.6c0,1.2,2.4,1.9,0.6,4.4
			c-0.6,0.6-1.2,1.2-1.2,0.6h0.6c-2.4,0.6,1.2,0.6-1.2,1.9c1.2-1.2,1.8,0,2.4,1.2l1.2-1.2c5.5-1.9-2.4,2.5-0.6,3.7
			c1.8,0,0-0.6,1.2-1.2c0.6,1.2-0.6,2.5,1.2,3.1c0,0.6-0.6,1.9-1.8,3.7c1.2,0,1.2,2.5,3.1,1.9c0-2.5-2.4,0.6-1.8-3.1l1.8-1.2
			c0.6,1.2,2.4,1.2,2.4,2.5c0-0.6,0.6-0.6,0.6-1.2c1.8,0.6,3.7,0,4.3,1.9c-1.2,1.2-1.8,0.6-2.4,0c0,1.9,0.6,1.2,1.2,2.5
			c-1.2,1.2-0.6-1.2-1.8,0l1.8,1.2l0,0c1.8-1.9,0.6,1.2,2.4,1.9c1.8,1.9,4.9,0,7.3,0c0,0.6-0.6,1.2-1.2,1.9c0.6-1.2,0-0.6-0.6-0.6
			c0.6,0.6-0.6,3.1-1.8,3.7c1.8,0.6,0.6-1.2,1.8-1.2l1.2,1.9c0.6-1.2,0.6-1.9,1.8-1.9c0.6,0.6,1.2,1.2,1.8,1.9
			c-0.6,0.6-1.2,1.9-1.8,1.2c0,0.6,0.6,1.2,1.8,0.6c0-1.9,2.4,0.6,3.1-1.2v1.9c0,0-0.6,0.6-1.2,0c-1.2,1.9,1.2,0.6,1.8,0.6
			c0,0.6,0.6,1.9,0,2.5c0.6,0,1.2,1.2,0.6,1.9c0.6,0,1.2-0.6,1.8-1.2l1.2,1.9c-0.6,0.6-3.1,3.1-3.7,3.1c1.2,0,2.4-1.9,3.7-1.2
			c-1.8,1.2,0,2.5-3.1,3.1c-0.6,1.9,0.6,3.1,1.8,3.7c1.8-0.6,0-1.2,1.2-2.5c2.4,1.9,6.1-1.2,7.3,1.2v-0.6c1.8,0.6,1.2,0.6,3.1,0
			c-1.8,1.2-3.7,5-1.8,6.9c1.2-0.6,0.6-2.5,2.4-3.1l1.2,1.2l-0.6,0.6c1.2,0.6-0.6,3.7,1.8,2.5l-1.8,3.1l0.6-1.2
			c1.2-0.6,2.4,0.6,2.4,0.6c1.8,0.6,1.8,1.2,1.2,3.1c0.6-0.6,1.8-2.5,2.4-1.9c-2.4,2.5,0.6,3.1-0.6,3.7c0.6,0.6,0,1.9,1.2,0.6
			l-1.8-1.9c2.4-1.9,3.7-0.6,4.9,0c-3.7,2.5,1.2,1.2-1.2,3.7c2.4-1.9,2.4,1.2,4.3,0c0.6,0.6-1.2,2.5-1.8,3.1h1.2
			c-0.6,1.2,0.6,3.1,0.6,4.4l2.4-0.6l-0.6,1.2c0.6,0,1.2,0,1.8-0.6v0.6c2.4-1.9,1.2,0,3.1,0.6c0,0.6-0.6,0.6-1.2,0.6
			c0.6,0.6-0.6,1.2-1.2,1.9c0-0.6,4.9-1.2,4.9-3.7c0.6-0.6,1.8-0.6,1.8,0l-1.8,1.9l2.4-1.2c0.6,0.6,0,1.9,0,2.5
			c-0.6-0.6-4.9,1.9-3.7,3.1c-0.6-0.6-2.4,0-3.1,0c0,0.6,0,0.6-1.2,0.6c1.2,0.6,1.2-0.6,2.4,0.6c-1.8,1.2-1.8,1.9-1.8,3.7l0.6-1.9
			h0.6c0-0.6,0-0.6,0.6-1.2c0,0,3.1-0.6,2.4,0.6c1.8-3.1,3.7,0.6,4.9-1.9c0.6,0,1.2,0.6,0.6,1.2c-1.8,0-1.2,2.5-3.1,3.1
			c0.6,0,0.6-1.9,1.8-1.9c0.6,0.6,0,1.9-0.6,2.5h-0.6v1.2c1.2-0.6,0.6-1.9,1.8-1.2c0,0.6,0.6,1.2,0,1.2c-1.2,0.6-3.1,1.9-3.7,1.2
			c0.6,0.6,2.4,2.5,3.1,0l0.6,0.6c0.6-1.2,0.6-3.1,2.4-1.9h-0.6h1.8l-0.6,1.2c0.6-0.6,1.2-0.6,1.2,0c-0.6,0.6-0.6,1.2-1.2,1.2
			c0.6,1.2,1.8,0,2.4,0c0.6,0.6,0.6,1.2-0.6,1.2c0.6,1.2,1.8,2.5,1.2,3.7c1.8,0.6,0-0.6,1.8-0.6c-2.4,3.1,1.2,4.4,3.1,6.2
			c2.4-2.5,0.6,0,3.7-1.2c-1.2,0-1.2,3.1-3.1,1.9l0.6,0.6c-0.6,3.7-1.2,1.2-3.1,3.7c0.6,1.2,4.3,0,3.7,1.9c-2.4,0.6,1.2,0.6-1.2,1.2
			c-0.6,0-0.6,0-1.2-0.6v0.6c0.6,2.5,3.1-0.6,4.9-0.6c0.6,1.2-1.2,1.9-2.4,1.9l0,0c0,0,0,0,0.6,0l0,0l1.2-0.6c-0.6,0-0.6,0-1.2,0.6
			l0,0l0,0c0,0,0,0,0.6-0.6c0.6-0.6,1.8-0.6,2.4-1.2c-1.2,0.6-1.2,1.2-0.6,0.6c3.7-0.6,5.5-1.2,6.7-1.2c-1.2,0-2.4,0-3.1,0.6
			c-0.6,0-0.6,0-0.6,0l0,0c0,0,0,0,0-0.6s0-0.6,1.2-1.9c-1.2,0-3.1,1.2-2.4-0.6c1.2,0,1.2-0.6,1.2-1.2c-1.2,0.6-1.2-0.6-1.8-0.6
			c0.6-0.6,3.1-0.6,3.1-2.5l-3.1,1.2c0-0.6,2.4-1.2,1.2-1.9c1.8-0.6,2.4-1.9,3.7-0.6c1.2-3.1-3.1-1.9-4.9-2.5h0.6
			c-0.6,0-1.2-0.6-1.8-0.6c0-1.2,1.8,0,2.4-0.6l-1.2-1.2l0,0c-0.6,0-1.2,0-0.6-0.6c1.2,0,2.4-0.6,3.1-0.6h-3.1
			c1.2-0.6,0.6-2.5,1.8-1.9l-1.8-1.9l1.8-1.2c-0.6,0-1.2,0-0.6,0.6c0-1.2-5.5-1.2-1.8-3.1c-2.4-0.6-2.4-1.9-4.9-3.1
			c3.1,0.6,0.6-3.1,3.1-2.5c0-1.9-1.8,0-3.1-0.6c0-1.2,2.4-2.5,3.7-1.9h-1.2h0.6h-1.8c0.6-1.9,1.8-1.2,1.2-2.5l-1.8,1.2l0.6-1.2
			c-0.6,0.6-1.2,0.6-1.8,0h0.6l-0.6-0.6c1.2,0,0-1.2,1.2-1.2c-0.6-0.6-0.6-0.6-1.8-1.9l-0.6,1.2c-1.8-0.6,1.8-1.2,0.6-2.5l-1.2,1.2
			c0.6-3.1-3.7-1.9-3.1-4.4c0.6,0.6,1.8-0.6,1.8-0.6c-1.2-0.6-2.4-3.1-4.9-2.5c1.2-1.9,1.8-2.5,1.8-4.4c-0.6-0.6-1.2-0.6-2.4,0
			c0-1.2-2.4-1.9-1.2-3.1c-1.2,0.6-0.6-0.6-1.8-0.6l0.6-0.6l-1.2,1.2c1.2-3.7-3.7-1.2-2.4-4.4h0.6h-1.2c0.6-0.6,1.2-0.6,1.8-1.2
			l-1.8-3.1l-0.6,1.2c-0.6-0.6-1.8,0-1.8-1.2c2.4-0.6-0.6-1.2,0.6-2.5h1.2c-0.6-0.6-0.6-0.6-1.8,0.6c-1.2-0.6,1.8-2.5-0.6-2.5
			l0.6,0.6c-0.6,0.6-1.8,1.2-2.4,0.6c0,0,0.6-1.2,0.6-0.6c-1.2-0.6-1.8-2.5-2.4-2.5c0-0.6,1.2-1.2,1.2-1.2c-2.4-0.6-0.6-1.2-3.1-1.9
			l0.6-0.6h-1.2l0.6-1.9l-0.6,1.2c-0.6-0.6-1.2-0.6-1.8-1.2l1.2-0.6c-1.8-1.2,0-3.1-2.4-3.7c0,0,0.6,0,0.6-0.6
			c-3.1,0,0.6-2.5-2.4-2.5c0.6,0,0.6-0.6,1.2-0.6H449l1.2-1.2l-2.4,1.2l1.2-1.9l-0.6,0.6c1.8-3.1-0.6-2.5,0-5l-1.2,1.9
			c-5.5,0.6-3.1-7.5-7.3-8.7l1.2-1.2h-2.4c0.6-1.9,1.2-0.6,1.8-1.2c-1.8-0.6-2.4,1.2-4.3,0c0-1.9,1.2-0.6,1.8-0.6
			c-1.8-0.6-4.3-2.5-4.9-3.7c0,0-0.6,0-0.6,0.6c-1.2-0.6-1.8-1.9-3.1-3.1c0.6-0.6,1.2-0.6,1.2,0c0-0.6-0.6-1.2-1.2-1.2l1.2-0.6
			c-0.6-1.2-3.1-1.9-1.8-3.1c-0.6,0.6-1.2,1.2-1.8,0.6c1.8-2.5-2.4-1.2-2.4-3.1c0.6-0.6,1.2,0.6,1.2,0c0-1.2-1.2-0.6-2.4-0.6
			l1.2-0.6l-3.7-1.2c1.8-2.5-2.4-1.9-1.2-3.1c-0.6-1.2,0,1.9-1.2,0.6c0.6-1.2-1.2-0.6,0-1.9l0,0l-0.6-0.6l1.8-0.6
			c-1.2-0.6-2.4,0.6-3.7,1.2c0-1.2-1.2-1.9-0.6-3.1h0.6c-2.4-1.2,0.6-6.2-3.1-5.6l0.6-0.6l-1.2-1.2l1.2-0.6l-3.1-0.6l0.6-0.6
			c-1.2-1.2-3.1-3.1-4.9-4.4h0.6c-2.4-0.6-1.2-2.5-3.1-2.5h0.6l-1.2-1.2l0.6-4.4c-2.4,0.6-0.6-4.4-1.2-2.5c-1.2,0-2.4,0-3.7,0.6
			c-1.2-1.2,0.6-1.2,0-2.5c-0.6-1.2-1.8,0-3.1-1.9l0.6-0.6c-0.6-0.6-1.2,0-2.4-1.2h0.6c-2.4,0,0-3.1-4.3-1.9
			c-0.6-1.2-3.1-2.5-1.8-3.7c-3.7-1.2-6.1-3.1-9.8-4.4c0.6-3.1-0.6-0.6-1.8-3.1l-0.6,1.9c-4.3-2.5-8.6-10-14.1-11.2v-1.9l-1.2,1.2
			c-5.5-3.1-12.2-4.4-15.9-3.7c-1.2,1.2-2.4,3.1-4.9,3.1l0,0c-1.8,1.2-3.7,2.5-4.9,3.7c-1.2,1.2-2.4,2.5-3.7,3.1
			c0-0.6-0.6-1.2-0.6-1.9c0.6,2.5-1.2,1.2-1.8,1.9l1.2,0.6c0,1.2,0,1.2-0.6,1.9c-0.6,0-1.2,0-1.8,0v3.1c0,0-0.6,0-0.6-0.6l0.6,1.2
			l-1.8-1.2c0,0.6,0,1.2,0,2.5c0,1.2,0,2.5,0.6,3.7c-0.6-0.6-1.8,1.2-1.2-0.6c0,0-0.6,1.9-1.8,3.7c-0.6,1.9-1.2,3.7-1.2,3.7l1.2-0.6
			c1.2,0.6,1.8,3.7,0.6,4.4c-0.6-2.5-1.8-1.9-3.1-1.9c0.6,1.9,1.2,0,1.8,1.2c0.6,1.9,0.6,5-0.6,5.6l-0.6-1.2c0,1.9-2.4,1.9-3.1,3.7
			c0.6,2.5-0.6,3.1,1.8,3.7c0,2.5-1.8,0-2.4,0.6c0.6,1.9-0.6,4.4-1.8,5c3.7,2.5-2.4,3.7,0.6,5l-1.8,0.6c0.6,0,2.4,1.2,3.1,1.9
			c-1.2,0.6-2.4,0-3.7,0l3.1,1.2c-4.9,3.7-4.3,11.2-7.9,15.6c0,2.5,0.6,6.2-0.6,8.7l-0.6-0.6l-1.8,2.5l1.8-1.9
			c0,0.6,0.6,1.2,0.6,1.9c-1.8,2.5-4.9,6.2-4.3,10.6c3.1,3.7-3.7,0.6-1.8,3.7c0,0-0.6-0.6-1.2-0.6c0.6,3.1,0.6,4.4,2.4,7.5
			c-3.7-1.2-0.6,1.9-2.4,0.6l1.2,0.6c-1.2,0.6-1.8,1.9-2.4,1.2l1.8,1.9l-1.8-0.6c-0.6,1.2,0,5-3.1,5c1.2,4.4-0.6,10-2.4,14.3
			c1.2,1.2,0.6,2.5,0.6,3.7l-1.8,0.6c0,1.2,2.4,3.1,0.6,3.7h-0.6c0,1.2-1.2,1.9,0,3.7c-0.6,1.2-1.8,1.9-3.1,1.2
			c3.1,0.6-1.2,2.5-1.2,2.5S266.8,229,279,248.3c1.2,0.6,1.8,2.5,3.7,2.5c0,1.2-2.4,1.2-1.2,1.9c1.2-1.2,3.7,1.2,6.1,0.6v1.2
			c1.2,0.6-0.6-1.2,1.2-0.6l-2.4-1.2c0.6-0.6,1.2-0.6,2.4-0.6c-0.6-1.2-4.3-2.5-2.4-3.7v0.6c0-1.2,1.8-0.6,2.4-0.6l0,0l1.8-0.6
			c-1.2,0.6,0.6,2.5,0.6,1.9c1.2-1.2-0.6,0-0.6-1.2c0-0.6,1.2,0,2.4,0v-1.2c1.2,0.6,0,0.6,1.2,0.6l-1.2-1.9c3.1,0.6-1.2-2.5,2.4-2.5
			c0.6,1.2,1.2,0,1.8,0.6l0.6-3.1c0.6,0,0.6,1.2,0.6,0.6c1.2-0.6-0.6-1.2-0.6-1.2c1.2,0,0.6-2.5,2.4-1.9c1.8-1.9-2.4-1.9-0.6-3.1
			c1.2,0,0,1.9,1.2,1.2v-1.9c0.6,0.6,1.8,0.6,1.8,1.9c3.1-5,10.4-6.2,10.4-11.2c1.8,0,1.2,0.6,1.8,1.2c-1.2-3.7,4.9-3.7,5.5-6.9
			l-1.2-0.6c4.9-3.1,3.7-8.7,6.7-13.1l-1.2,0.6c-1.2-1.2-1.2-1.9-1.2-3.1c0.6,0,2.4,1.2,2.4,0c-0.6,0-1.2,0.6-1.8,0
			c4.3-3.1,5.5-11.8,9.2-18.1c1.2-9.3,6.1-18.1,7.3-27.4c0,1.2-3.1,0-2.4-0.6c6.1-1.2,0.6-5,4.9-6.9c-0.6-5.6,5.5-8.7,2.4-14.9
			l1.8,0.6c0.6-0.6,0-1.2,0-1.9h0.6c1.2-1.9,0-4.4,1.2-5l-0.6-0.6c0-1.2,1.2,0,0.6-1.2h0.6l-1.2-1.9c3.1,1.2,1.2-3.1,2.4-3.1
			c0-1.2-0.6-4.4,0-6.2c1.8,0,2.4-2.5,3.7-3.7c0.6-3.1,1.2-8.1,2.4-11.8l-1.8-0.6v-1.2c0.6,0,0.6,0,0.6,0c2.4,0,0-2.5,1.2-3.1
			c-1.8,0-0.6,0.6-0.6,1.2c-1.2,0.6-3.1-0.6-1.8-1.9h0.6l-0.6-1.2c1.8,0.6,2.4,0,3.7,0c0-1.9,0-3.1-0.6-5c0-1.9-0.6-1.9,0-2.5
			c1.8,0.6,0-0.6,2.4,0.6c-1.2-0.6-2.4-1.2-4.3-2.5c0,0-0.6-0.6,0.6,0c0.6,0.6,1.8,0.6,1.8,1.2v-0.6l0.6,0.6
			c-1.2-1.9,1.8,0.6,0.6-1.2c-0.6-1.2,0,0-1.2-1.2c-1.8-2.5,1.8,1.2,0.6-0.6l1.2,1.9c-0.6-1.2-1.8-2.5-0.6-1.2
			c1.2,1.2,1.2,1.9,1.8,2.5c0,0,0-0.6-1.2-2.5c-0.6-0.6,0.6,1.2,1.2,1.2c-0.6-0.6-0.6-1.2-1.2-2.5c0.6,1.2,0.6,0.6,1.2,0.6
			c0,0.6,0.6,1.2,0.6,1.9C361,83.3,363.4,88.9,362.8,88.3z"/>
		<path fill="#30353A" d="M409.9,121.9v-0.6c0,0-0.6,0.6-1.2,0.6H409.9z"/>
		<path fill="#30353A" d="M386.7,96.4C386.7,96.4,386.7,97,386.7,96.4C386.7,97,386.7,97,386.7,96.4z"/>
		<path fill="#30353A" d="M378.7,93.3c0.6,0,0.6-0.6,0.6-1.2C379.3,92.7,379.3,92.7,378.7,93.3z"/>
		<path fill="#30353A" d="M426.4,133.1c0,0-0.6,0-0.6,0.6C425.8,133.8,425.8,133.1,426.4,133.1z"/>
		<path fill="#30353A" d="M459.4,175.5L459.4,175.5L459.4,175.5z"/>
		<path fill="#30353A" d="M460,171.7C459.4,171.1,459.4,171.1,460,171.7C459.4,171.1,459.4,171.7,460,171.7z"/>
		<path fill="#30353A" d="M417.2,123.8h-0.6C416.6,124.4,416.6,123.8,417.2,123.8z"/>
		<path fill="#30353A" d="M458.8,171.1l-0.6-1.2C458.2,170.5,458.2,170.5,458.8,171.1L458.8,171.1z"/>
		<path fill="#30353A" d="M460,176.7l-0.6-0.6C459.4,176.1,459.4,176.1,460,176.7z"/>
		<path fill="#30353A" d="M440.5,146.8L440.5,146.8C439.8,146.8,440.5,146.8,440.5,146.8z"/>
		<polygon fill="#30353A" points="453.9,170.5 453.9,169.9 453.3,170.5 		"/>
		<path fill="#30353A" d="M461.2,179.2C461.2,179.2,460.6,179.2,461.2,179.2C460.6,179.2,460.6,179.8,461.2,179.2
			C461.2,179.8,461.2,179.2,461.2,179.2z"/>
		<path fill="#30353A" d="M446,157.4c0.6,0,1.2-0.6,1.2-0.6C447.2,156.2,446.6,156.2,446,157.4z"/>
	</g>
</g>
</svg>
