<?xml version="1.0" encoding="utf-8"?>
<!-- Generator: Adobe Illustrator 18.1.0, SVG Export Plug-In . SVG Version: 6.00 Build 0)  -->
<svg version="1.0" id="Layer_1" xmlns="http://www.w3.org/2000/svg" xmlns:xlink="http://www.w3.org/1999/xlink" x="0px" y="0px"
	 viewBox="0 0 293.9 259.9" enable-background="new 0 0 293.9 259.9" xml:space="preserve">
<polygon fill="none" points="-1262,-1713 6396,-1679 6396,6321 -1262,6287 "/>
<polygon fill="none" points="-1262,-1713 6396,-1679 6396,6321 -1262,6287 "/>
<polygon fill="none" points="-1262,-1713 6396,-1679 6396,6321 -1262,6287 "/>
<polygon fill="none" points="-1262,6287 6396,6321 6396,-1679 -1262,-1713 "/>
<path fill="#28A8E0" d="M181.7,77.2c2.6,1.9,5.2,3.9,7.8,5.9L147,9.5l-14.8,25.7C147.8,50.2,164.3,64.1,181.7,77.2"/>
<g>
	<path fill="#414142" d="M202.8,98.1l-15.7-11.8c-1.6-1.2-3.2-2.4-4.8-3.6l-3.1-2.3c-18.2-13.7-34.5-27.5-49.8-42.3l-2.3-2.2
		L147,1.5L202.8,98.1z M137.2,34.5c12.2,11.5,25,22.5,38.9,33.4L147,17.5L137.2,34.5z"/>
</g>
<path fill="none" d="M89,110.1c5.9,5.3,11.7,10.6,17.8,15.8c7.7,6.5,16.1,12.3,24.8,17.5l15.5-13.4h69.5L206,111.6
	c-11.1-6.8-21.6-14.8-31.4-22.3c-17.3-13.1-33.9-26.8-49.6-41.6L89,110.1z"/>
<linearGradient id="SVGID_1_" gradientUnits="userSpaceOnUse" x1="88.985" y1="95.5523" x2="216.5873" y2="95.5523">
	<stop  offset="0" style="stop-color:#EED286"/>
	<stop  offset="0.5" style="stop-color:#E5C14B"/>
	<stop  offset="1" style="stop-color:#E0B625"/>
</linearGradient>
<path fill="url(#SVGID_1_)" stroke="#414142" stroke-width="8" stroke-miterlimit="10" d="M106.8,125.8c7.7,6.5,16.1,12.3,24.8,17.5
	l15.5-13.4h69.5L206,111.6c-11.1-6.8-21.6-14.8-31.4-22.3c-17.3-13.1-33.9-26.8-49.6-41.6l-36,62.3
	C94.9,115.3,100.7,120.7,106.8,125.8z"/>
<path fill="#E7E7E7" d="M74.9,192.4l45.5-39.4c-4.5-2.7-8.8-5.5-12.9-8.7c-8.9-6.9-17.2-14.4-25.6-21.9l-4.3,7.5l-23.4,40.6
	C60.8,178,67.5,185.6,74.9,192.4"/>
<g>
	<path fill="#414142" d="M74.8,197.8l-2.6-2.5c-7.3-6.9-14.1-14.4-20.6-21.7l-2.3-2.6l31.7-54.8l5.9,5.3
		c7.4,6.7,15.1,13.5,23.1,19.7c3.6,2.8,7.6,5.4,12.6,8.4l4.7,2.8L74.8,197.8z M59,170c5.2,5.7,10.5,11.6,16,17l38.6-33.4
		c-3.2-2.1-6-4-8.7-6.1c-7.7-6-15.1-12.5-22.2-18.8L59,170z"/>
</g>
<path fill="#F2F2F2" d="M172.7,164.8c23.3,11.1,47.3,20.6,72.2,27.4c2.9,0.8,5.9,1.6,9,2.4l-37.3-64.7H147l-15.5,13.4
	C144.8,151.4,158.9,158.2,172.7,164.8"/>
<g>
	<path fill="#414142" d="M262.2,200.9l-9.2-2.4c-2.8-0.7-5.5-1.5-8.1-2.2l-0.9-0.2c-23.3-6.4-47.1-15.4-72.9-27.6
		c-13.6-6.5-28-13.5-41.5-21.6l-4.7-2.8l20.8-18h73.3L262.2,200.9z M138.4,142.8c11.8,6.8,24.3,12.8,36.1,18.4
		c25.2,12,48.4,20.8,71.2,27l-31.3-54.3h-65.7L138.4,142.8z"/>
</g>
<path fill="none" d="M74.9,192.4c0,0,0.1,0.1,0.1,0.1c14.3,13.3,31.3,23.4,48.6,32.4c20.6,10.7,44.1,21,68,25.4H237
	c1-0.2,1.9-0.2,2.7,0h46.4l-22.7-39.3c-4.7-0.9-9.3-1.9-13.9-3.1c-24.7-6.3-48.8-15-72-25.5c-12.8-5.8-25.3-11.9-37.7-18.6
	c-6.5-3.5-13.1-7-19.5-10.8L74.9,192.4z"/>
<linearGradient id="SVGID_2_" gradientUnits="userSpaceOnUse" x1="74.882" y1="201.7263" x2="286.1293" y2="201.7263">
	<stop  offset="0" style="stop-color:#8FCBD5"/>
	<stop  offset="0.5" style="stop-color:#5CB9C8"/>
	<stop  offset="1" style="stop-color:#04A9B9"/>
</linearGradient>
<path fill="url(#SVGID_2_)" d="M75,192.6c14.3,13.3,31.3,23.4,48.6,32.4c20.6,10.7,44.1,21,68,25.4H237c1-0.2,1.9-0.2,2.7,0h46.4
	l-22.7-39.3c-4.7-0.9-9.3-1.9-13.9-3.1c-24.7-6.3-48.8-15-72-25.5c-12.8-5.8-25.3-11.9-37.7-18.6c-6.5-3.5-13.1-7-19.5-10.8
	l-45.5,39.4C74.9,192.5,75,192.5,75,192.6z"/>
<g>
	<path fill="#414142" d="M293.1,254.4h-53.8l-0.4-0.1c-0.4-0.1-0.8-0.1-1.3,0l-0.3,0.1h-46.1l-0.4-0.1c-20.6-3.8-42.5-12-69.1-25.8
		c-14.8-7.7-33.7-18.3-49.5-33l-0.2-0.2l-3-3l3.2-2.9l47.7-41.3l2.5,1.5c5.1,3.1,10.5,6,15.7,8.8c1.2,0.7,2.4,1.3,3.7,2
		c11.8,6.4,24.4,12.6,37.4,18.5c23.8,10.7,47.8,19.2,71.4,25.3c4.9,1.2,9.3,2.2,13.6,3l1.8,0.3L293.1,254.4z M240,246.4h39.2
		l-18.3-31.7c-3.9-0.8-8-1.7-12.3-2.8c-24-6.2-48.5-14.8-72.7-25.7c-13.2-6-26-12.3-37.9-18.7l-3.6-2c-4.5-2.4-9.1-4.9-13.6-7.5
		l-39.9,34.5c14.4,12.5,31.2,22,44.5,28.9c25.7,13.4,46.9,21.3,66.5,25h44.7C237.8,246.2,238.9,246.2,240,246.4z"/>
</g>
<linearGradient id="SVGID_3_" gradientUnits="userSpaceOnUse" x1="7.8175" y1="216.8587" x2="64.6212" y2="216.8587">
	<stop  offset="0" style="stop-color:#F1E2C5"/>
	<stop  offset="0.5" style="stop-color:#E7CF9B"/>
	<stop  offset="0.6483" style="stop-color:#E5CB92"/>
	<stop  offset="1" style="stop-color:#E1C180"/>
</linearGradient>
<path fill="url(#SVGID_3_)" stroke="#414142" stroke-width="8" stroke-miterlimit="10" d="M47.2,183.3L7.8,250.4H8l56.7-48.7
	C52.8,190.9,47.2,183.3,47.2,183.3z"/>
<path fill="#D1D2D3" d="M64.6,201.7l-54.5,48.7h135.1C106.6,235.5,80.2,215.8,64.6,201.7"/>
<g>
	<path fill="#414142" d="M166.7,254.4H1.1l63.6-58.2l2.7,2.5c15.1,13.7,41.1,33.2,79.3,48L166.7,254.4z M21.7,246.4h103.9
		c-27.6-12.9-47.8-27.7-60.9-39.3L21.7,246.4z"/>
</g>
</svg>
